<mxfile host="app.diagrams.net" modified="2023-06-07T05:25:35.292Z" agent="Mozilla/5.0 (Windows NT 10.0; Win64; x64) AppleWebKit/537.36 (KHTML, like Gecko) Chrome/113.0.0.0 Safari/537.36" version="21.3.7" etag="KRohkrDdOPgWft-PLSRp" type="github">
  <diagram name="Page-1" id="cU9dDLEfGN30MugA0F8E">
    <mxGraphModel>
      <root>
        <mxCell id="0" />
        <mxCell id="1" parent="0" />
      </root>
    </mxGraphModel>
  </diagram>
</mxfile>
